<?xml version="1.0" encoding="utf-8"?>
<!-- Generator: Adobe Illustrator 16.0.0, SVG Export Plug-In . SVG Version: 6.00 Build 0)  -->
<!DOCTYPE svg PUBLIC "-//W3C//DTD SVG 1.1//EN" "http://www.w3.org/Graphics/SVG/1.1/DTD/svg11.dtd">
<svg version="1.1" id="Layer_1" xmlns="http://www.w3.org/2000/svg" xmlns:xlink="http://www.w3.org/1999/xlink" x="0px" y="0px"
	 width="15px" height="15.001px" viewBox="0 0 15 15.001" enable-background="new 0 0 15 15.001" xml:space="preserve">
<g>
	<path fill="#113B92" d="M7.5,14.501c-3.86,0-7-3.14-7-7s3.141-7,7-7c3.859,0,7,3.14,7,7S11.36,14.501,7.5,14.501z"/>
	<path fill="#0C2F6D" d="M7.5,1.001c3.584,0,6.5,2.916,6.5,6.5s-2.916,6.5-6.5,6.5c-3.584,0-6.5-2.916-6.5-6.5
		S3.916,1.001,7.5,1.001 M7.5,0.001c-4.142,0-7.5,3.358-7.5,7.5c0,4.142,3.358,7.5,7.5,7.5c4.142,0,7.5-3.358,7.5-7.5
		C15,3.36,11.642,0.001,7.5,0.001L7.5,0.001z"/>
</g>
</svg>
