<?xml version="1.0" encoding="utf-8"?>
<!-- Generator: Adobe Illustrator 16.0.0, SVG Export Plug-In . SVG Version: 6.00 Build 0)  -->
<!DOCTYPE svg PUBLIC "-//W3C//DTD SVG 1.1//EN" "http://www.w3.org/Graphics/SVG/1.1/DTD/svg11.dtd">
<svg version="1.1" id="Layer_1" xmlns="http://www.w3.org/2000/svg" xmlns:xlink="http://www.w3.org/1999/xlink" x="0px" y="0px"
	 width="245.43px" height="40.685px" viewBox="0 0 245.43 40.685" enable-background="new 0 0 245.43 40.685" xml:space="preserve">
<path fill="#CE2027" d="M0,0h20.851c5.086,0,8.748,1.322,11.087,3.662c1.627,1.627,2.645,3.763,2.645,6.509v0.102
	c0,4.68-2.645,7.527-6.204,9.053c4.983,1.627,8.035,4.475,8.035,9.968v0.101c0,7.018-5.695,11.188-15.358,11.188H0V0z
	 M18.104,16.274c3.458,0,5.391-1.119,5.391-3.56v-0.101c0-2.136-1.729-3.459-5.085-3.459h-7.425v7.12H18.104z M19.63,31.632
	c3.458,0,5.391-1.322,5.391-3.662v-0.102c0-2.136-1.729-3.662-5.492-3.662h-8.544v7.526h8.646V31.632z M39.464,0h11.29v40.685
	h-11.29V0z M54.721,0h11.29v16.477L80.047,0h13.325L78.013,17.495l15.867,23.19H80.352L70.181,25.631l-4.17,4.577v10.477h-11.29V0z
	 M94.795,0h32.65v9.561h-21.563v6.204h19.528v8.849h-19.528v6.51h21.868v9.561H94.795V0z"/>
<path fill="#4C4C4D" d="M132.225,0h29.395v4.17h-24.817v13.934h22.173v4.17h-22.173v14.24h25.123v4.17h-29.7V0L132.225,0z
	 M179.012,19.935L163.959,0h5.391l12.511,16.579L194.167,0h5.391l-15.053,19.935l15.664,20.75h-5.492L181.758,23.19l-13.019,17.495
	h-5.289L179.012,19.935z M204.339,0h4.577v40.685h-4.577V0z M216.238,0h29.191v4.17h-24.614v14.646h21.97v4.17h-21.97v17.698h-4.578
	V0z"/>
</svg>
